<?xml version="1.0" encoding="utf-8"?>
<!-- Generator: Adobe Illustrator 19.0.0, SVG Export Plug-In . SVG Version: 6.00 Build 0)  -->
<svg version="1.1" id="layer" xmlns="http://www.w3.org/2000/svg" xmlns:xlink="http://www.w3.org/1999/xlink" x="0px" y="0px"
	 viewBox="-153 -46 652 652" style="enable-background:new -153 -46 652 652;" xml:space="preserve">
<style type="text/css">
	.st0{fill:#003865;}
</style>
<path class="st0" d="M57.6,268.5l8.3,8l8.5-8.9l-8.2-7.9L57.6,268.5z M139.8,382l8.9,5.6l5.9-8.5l-8.8-5.9L139.8,382z M249.6,412.1
	l-9.5-2.4l-2.7,10.2l10.3,2.3l2.5-9.3l9.5,2.1l2.7-10l-10.3-2.6L249.6,412.1z M215.7,300.1l-8.8-5.9l-6,8.7l8.9,5.6L215.7,300.1z
	 M250.1,321c1.1-2.6,2.1-5,2.9-7.4c-11.3-14.7-24.3-32.9-40.8-51.6c-1.4-1.6-2.8-3.1-4.2-4.7c-0.3,3.4-1,7.1-2.1,10.9
	C224,288.3,241,309.3,250.1,321 M198.8,275.1c-1-1.2-2.1-2.4-3.2-3.6v10.3C196.8,279.6,197.9,277.4,198.8,275.1 M189.3,391.2
	l0.1-39.3c-2.6,1.9-5.7,3.5-9.4,4c-0.1,18.6-0.3,32-0.3,32l-3.7,17.6C185.7,398.2,189.3,391.2,189.3,391.2 M167.8,410.9
	c2.6-1.5,5-3,7.1-4.5c-0.3-9-1-31.5-1.5-50.7c-0.3-0.1-0.7-0.2-1.1-0.3c-4.5-1.3-7.7-4-9.9-7.2c0.2,14.3,0.4,27.6,0.8,32.9
	C163.9,390.1,164.5,402.5,167.8,410.9 M161.1,414.3c-0.7-3.1-1.3-6.6-1.8-10.7c-1.4-12-1.8-47.7-2-68.7c-0.7-3.9-0.6-6.8-0.6-6.8
	c0.3-0.6,0.2-7.6,0-14.4c0,0-11.6,12.9-20.6,0.7c-5.4-7.3-0.4-21.7,1.6-26.7c-1.6,0.2-3.3,0.3-5.1,0.4c0,12.9,0,30.8-0.3,36.6
	c-0.4,6.7-2.4,11.9-4.7,15.7c3.1-1.5,7.7-3.2,12.7-2.8c10.2,0.9,15.7,9,15.7,14c0,4.6-2.6,12.1-9,17.6c-6.3,5.4-16.7,6.4-16.7,6.4
	s-0.6,0.9-1.5,2.2c-1.8,4.5-6.5,14.6-5.6,23.8c0.7-0.4,1.4-0.7,2-1.1c6.6-3.7,13.7-10.6,20.3-11c6.2-0.4,6.9,3,6.4,6.8
	c-0.5,3.7-3.6,11.9-7.5,17c-2,2.6-3.5,4.5-4.6,5.6c3.8,0.6,7.6,0.1,11.1-0.9C154.6,416.9,158,415.7,161.1,414.3 M139.3,418.9
	c0.9-1.6,2.3-4,3.8-7c2.6-4.9,3.8-8.8,0.7-11.3c-1.3-1.1-6-1.3-15,5.7c-1.2,0.9-2.3,1.7-3.5,2.5C128.8,415,133.9,418,139.3,418.9
	 M118.8,403.7c0.2-6.9,1.7-12.7,3.5-17.2c-5.2,5.2-14.1,10.3-25.7,13.6c0.9,1.4,2,2.8,3.4,3.9C104.7,407.9,112.3,406.3,118.8,403.7
	 M94.6,390.8c1.9-0.2,3.9-0.5,6-0.9c13.9-2.7,23.2-11.9,23.2-11.9l-7.9,0.3c0,0-10.1,1.1-13.1-9.4c0-0.1,0-0.2-0.1-0.3
	c-2.3,3.6-4.8,8.4-6.7,14.4C95.2,385.8,94.7,388.4,94.6,390.8 M115.9,362.9c-3-1.2-4.2,1.3-4.2,1.3s-0.1,1.7,3.5,3.1
	c3.3,1.3,5.7,0.2,5.7,0.2S118.6,364,115.9,362.9 M131.6,366.2c0,0,13.8-1.5,15.4-5.7c1.2-3.2-1.7-6.5-5.3-8.9
	c-3.7-2.4-7.5-4.1-13.5-3.3c-2.5,0.3-6.6,1.9-10.2,3.6c-0.7,0.3-1.5,0.8-2.2,1.4c0.6,0,1.3,0,1.8,0.1c6.6,0.9,8.4,4,10.2,6.2
	C129.8,362,131.6,366.2,131.6,366.2 M101.6,361.3c3.7-4.9,5.6-6.7,9.6-10c3.3-2.7,8.4-6.3,11.6-8.2c2.1-4.4,4.3-10.9,4.5-19.7
	c0.3-10.3,0-26.4-0.1-35.1c-8-0.1-11.2-1.7-11.2-1.7s-1.3,1.3-4.4,3.4c-2.4,1.6-6.4,2-6.4,2s-5.3,26.2-40.5,37.1
	c-0.9,2.1-1.8,4.8-1.8,6.8c0,3,0.8,4.4,3.2,3.8c1.7-0.4,3.2-3.2,3.2-3.2s-0.8,6.1-3.5,7.6c-2.5,1.4-5.9-1.5-4.6-9.4
	c0.3-2,1.1-3.8,1.9-5.2c-4.3,1.3-8.8,2.1-13.3,2.7c-1.8,9.4,1.6,15.7,7.1,19.4c10.1,6.8,20.9,2.2,32.7-3.1
	c11.7-5.3,21.8-12.6,21.8-12.6s-1.2-7.8-3.9-13.2c-2.5-5.1-5.1-8.4-5.1-8.4l7.5-12.8l9.1,16l-4.3-0.5c0,0,2.9,6.4,1.7,14.1
	c-1.2,7.6-4.4,10.5-4.4,10.5s-1.6,3.2-18.7,14.4c-2.8,1.8-5.6,3.4-8.3,4.7c-1,2.1-2.7,6.2-2.7,9c0,3,0.8,4.5,3.2,3.8
	c1.7-0.4,3.2-3.2,3.2-3.2s-0.8,6.1-3.5,7.6c-2.5,1.4-5.9-1.5-4.6-9.4c0.5-3.2,2-5.7,3.3-7.3c-2.8,1.3-5.4,2.2-8,3
	c-0.3,0.6-0.7,1.2-1.1,2c-2.8,5-5.3,12.6-0.4,19.7c2.4,3.4,7.2,5.3,14.2,5.3c0.4-2.6,1.1-5.5,2.1-8.6
	C95.1,369.7,97.8,366.3,101.6,361.3 M50.6,318.2c5.7-9.9,13.2-18.2,13.2-18.2s-17.6-7-37.4-23.5c-16-13.4-26.6-28.8-25.3-45.7
	c-10.1,3.2-21.6,9.3-40.3,20.7c-4.6,2.8-9.1,5.6-13.4,8.4c4.2,11.2,11.8,23.3,24.8,34.1C1.3,318.1,28.7,320.7,50.6,318.2 M-54.4,254
	c1.3-0.9,2.7-1.8,4.1-2.8c21.3-14.7,37.6-25.6,53.6-30.5c0.2-0.7,0.5-1.4,0.8-2c8-19.8,38.1-28,78.4-22c14.5,2.1,29.1,6.2,43.1,11.9
	c-0.1-5.1-0.3-10.2-0.4-15.3c-1.1-1.3-2.2-2.7-3.4-4.1c-3-1.5-6-2.9-9-4.2c-40-17.5-92.9-25.6-124.8-10.8
	c-31.4,14.5-40.9,36.3-44,48.2C-57.5,227.8-58.5,239.9-54.4,254 M111.8,156.4c0.1,2.2,5.8,10,12.9,19.1c-0.4-14.3-0.8-26.4-1-32.7
	c-1.8,1-3.9,2.3-5.6,3.7C114.2,149.7,111.6,151.5,111.8,156.4 M155,209.1c-2.6-1.9-5.2-3.6-7.9-5.4c0.7,1,1.4,1.8,2,2.6
	c1.8,2.5,3.8,5.3,6,8.5C155.1,212.9,155.1,211,155,209.1 M162.5,202.3c8.3,5.9,16.1,12.2,23.5,18.6c-0.1-0.2-0.3-0.4-0.4-0.5
	c-5.1-6.6-14.4-17-23.2-26.6C162.4,196.6,162.5,199.5,162.5,202.3 M154.5,168.8c-0.2-14.2-0.4-27.4-0.6-38.7
	c-4.2,2.4-14.1,8.8-14.1,15.9C139.8,150.4,146.8,159.7,154.5,168.8 M189.5,291.2l0.1-26.4c-4.9-5.4-9.7-10.3-14.5-15
	c0.1,0.4,0.2,0.7,0.4,1.1c2.3,7.4,3.5,28,4.1,51.1c0.6-0.5,1.2-1.1,1.8-1.6C184.1,297.8,186.9,294.7,189.5,291.2 M163,315.6
	c0,4.6,0.1,8,0.1,9.9c0.3,12,4.1,16.7,9.9,18.3c-0.2-8-0.3-14.5-0.3-17.7c0-3.6-0.1-8.9-0.2-15.1C168.2,313.8,164.9,315,163,315.6
	 M162.7,244.4c0.1,29.3,0.2,55.7,0.3,70.5c2-1.3,5.3-3.6,9.4-6.8c-0.5-17.7-1.7-40.8-4.3-49.6C166.5,252.8,165.1,248.9,162.7,244.4
	 M145.1,217.8c-4.7-6.4-8.7-11.3-12.9-16.2c0.1,3.4,0.1,6.7,0.2,9.9C136.7,213.4,140.9,215.5,145.1,217.8 M164.9,229.9
	c8.9,6.3,17.2,13.2,24.7,20.7l0-12.4c-8.9-8.6-17.9-16.5-27.1-23.6c0,3.9,0,7.7,0.1,11.6C163.4,227.5,164.2,228.7,164.9,229.9
	 M144.7,308.1c8.2,1.8,11.6-7.1,11.6-7.1c-0.4-18.6-0.7-42.9-1-68.4c-3.4-2.6-6.9-5.1-10.4-7.4c-0.9,1.9-3,6.5-3,9.5
	c0,3,0.8,4.5,3.2,3.8c1.7-0.4,3.2-3.2,3.2-3.2s-0.8,6.1-3.5,7.6c-2.5,1.4-5.9-1.5-4.6-9.4c0.7-4.3,3.1-7.2,4.4-8.5
	c-3.9-2.5-7.9-4.9-12-7c0.2,14,0.4,24.9,0.2,28.1c0,0.3-0.1,0.5-0.1,0.8l0.1,3c0,0,15,5,18.2,11.7c2.5,5.3,2.7,12.8-0.5,19.2
	c-2.1,4.2-5.8,6-10.9,6.8C137.8,299.2,136.3,306.3,144.7,308.1 M132.6,276.6c0.5,0.1,2.1,0.1,5.9-0.1c3.6-0.2,9.7-2.6,8.2-4.9
	c-1.1-1.6-4-4.3-6.7-5.9c-2.7-1.6-6.9-2.4-6.9-2.4c1.7,5.1-0.3,13-0.3,13s0,0-0.1,0V276.6z M114.7,271.6c3.7,3.7,6.4,3.7,6.4,3.7
	s5.2-3.3,6.8-7.6c1.6-4.3-7.1-10.7-7.1-10.7s-6.2,3.4-7.8,6.1C111.4,265.8,111,267.9,114.7,271.6 M88,276.5c-4.2,1-2.2,4.6,0.5,5.6
	c2.7,1.1,5.4,0.7,5.4,0.7S92.5,275.5,88,276.5 M109.3,264c2.2-5.1,7.4-12.7,7.4-12.7l-3.5-2.7l3-12.8c0,0,5,3.4,9,5.9
	c0.4,0.2,0.7,0.5,1.1,0.7c-0.2-7.9-0.4-17.6-0.7-27.8c-8.9-4-18.5-7.2-29.2-9.6c-40.6-9.2-68.2-0.6-77.4,13.1
	c10.9-0.1,21.1,3.6,30.4,9.8c8.6,5.7,22.1,16.9,32.8,20.5c10.6,3.5,12.4,0.4,12.8-1.3c0.7-3.3-4.5-13.8-4.5-13.8l8.2-8
	c0,0,4.1,10.1,2.2,19.7c-1.6,8-9,18.6-20.7,15c-9.7-3-14.3-5.3-30.8-16.7c-16-11.1-22.4-16.6-33.4-15.6c-0.3,0-0.5,0.1-0.8,0.1
	c-2.1,12.1,4.8,23,14.6,33.3c12.9,13.6,46.2,29.8,46.2,29.8s-12.8,13.8-20.4,26.6c3.4-0.5,6.7-1.2,9.8-1.8c24.9-5.4,34.5-22,34.5-22
	s-6.4,2-13.2,0.5c-6.9-1.5-9.1-5.8-6.6-15.7c2.5-9.8,9.5-14.7,12-14.7c3.2,0,4.8,2,7.5,6.2c2.7,4.3,4.5,11.4,4.5,11.4s1-0.2,2.9-0.7
	c2-0.5,2.4-1.9,2.4-1.9S106.6,270.3,109.3,264 M189.4,340.7l0.1-44.6c-3.6,3.9-6.9,7-9.9,9.5c0.3,13,0.4,26.5,0.4,38.8
	C183.3,344.3,186.5,342.8,189.4,340.7 M200.9,249.6c-1.8-1.9-3.6-3.7-5.4-5.5l0,12.8c2.1,2.2,4.2,4.5,6.3,6.8
	c0.2-1.7,0.3-3.3,0.2-4.9C202,255.6,201.6,252.6,200.9,249.6 M195.5,218.4c4.5,6.6,8.1,12.7,9.8,17c0.6,1.6,1.2,3.4,1.7,5.5
	c9.9,10.1,19.3,20.5,28.6,31.1c8.6,9.9,15.2,18.3,20.7,25.7c0.5-9.6-1.7-19.1-5.6-31.9c-6.7-22-37.3-57.1-48.6-68.9
	c-2.3-2.4-4.5-4.8-6.7-7.1c0.1,10,0.1,16.3,0.1,16.3L195.5,218.4z M187.5,163.1c-0.7-13.5-1.4-28.5-2.1-42.4
	c-4.1,3.1-12.9,10.4-13.8,16.9C170.9,143,177.5,151.9,187.5,163.1 M253.9,374.4c0,3.2,0.9,5.5,0.9,5.5s3.5-0.9,4.9-3.1
	c1.6-2.4,1.5-6.3-1.5-7.1C255.6,368.9,253.9,371.2,253.9,374.4 M255.5,321.8c-0.6,1.1-1.4,2.3-2.1,3.4c1.1,1.5,2,2.7,2.7,3.5
	c5.9,8,15.2,17.2,31,23.5c15.7,6.3,39.7,4.6,57.7,6.1c18.5,1.6,35.7,3.6,54.9,9.1c19.2,5.5,21.3,9.8,21.3,9.8l-22.1,1.7
	c0,0-8.4-5.4-24.3-9.1c-19-4.4-36.4-6-55-7c-18.1-1-24.1-0.3-34.3-1.6c-17.8-2.2-29.4-14-38.9-25.9c-10.1,13.3-22.8,26.7-28.9,31.9
	l-4.4,5.8l-8.7-6l6.4-8.5l7.4,5.4c6.1-6.4,17.7-17.8,26.1-31.4c-1.1-1.4-2.2-2.8-3.3-4.2c-9.2-11.8-17.9-25.7-39-49.8
	c-1.7,3.3-3.7,6.7-6.2,10.1l0,46.4c2.9-3.1,4.8-5.9,4.8-5.9l0.1,0.2c0,0-0.8,7.5,0.8,10.2c1.8,3,6.7,4.4,11.5,1.2
	c4.8-3.2,3.7-12.5,4.2-14.6c0.5-2.1,1.6-0.4,1.6-0.4s-0.4,6.3,4.4,9c4.8,2.7,6.8-0.2,6.8-0.2l-3.2-6.9l3.3-8.4c0,0,5.5,6.4,4.8,13.5
	c-0.5,4.8-0.9,13.1-6.5,14.7c-6.3,1.8-10.1-6.1-10.1-6.1s-4.2,13-11.2,13c-8,0.1-10.1-10.1-10.1-10.1s-0.4,0.6-1.1,1.5l0,39
	c0,0,1.1,4.4-4.3,12.8c-3.1,4.9-10.7,13-19.7,19.8c1.2,1.2,2.5,2.1,4,2.7c9.7,3.5,15.9-4,17.7-6.8c2.3-3.4,5.5-8.8,5.5-8.8
	s-1.5,6.2,4.4,6.2c5.9,0,11-13.1,11-13.1s-0.9,7,5.7,5.7c6.4-1.3,7.2-15.3,7.2-15.3s1.9,8.2,8.1,6.1c5.1-1.6,5.8-9.3,5.8-9.3
	s-4.9-11.8-9.3-12.9c-0.2,0-1.1-12.4-1.1-12.4s1.7-0.4,3.8,3.8c2.1,4.3,2.5,6,7,13c5.6,8.6,9,5.1,9,5.1s-2-10.6-0.5-18.4
	c1.3-7,5.5-6.9,9.5-4.6c5.2,3,6.5,8.8,6.8,16.8c0.4,9.7-9.3,17.7-9.3,17.7l0.5,7.4l-3.2-6.3c0,0-3.2-0.8-5.6-1.6
	c-2.5-0.8-5.8-5.4-5.3-3.8c0.5,1.6,0.7,13.3-6.4,16.1c-5.1,2-8.6-1.7-8.6-1.7s-1.5,10.8-7.7,11.3c-4.9,0.4-7.5-3.3-7.5-3.3
	s-3.4,10-8.7,10.6c-5.3,0.5-8.4-4.4-8.4-4.4s-7.9,17.2-20.3,14.4c-5.7-1.3-9.4-4.1-12-8.9c-4.7,2.8-9.5,5-14.1,6
	c-15.3,3.4-27.8-0.6-30.5-16c-7.4,4.1-14.3,5.7-19.7,3.5c-3.6-1.4-9.1-6-10.9-14.4c-10.7,1.2-19.2-2-22.7-8.1
	c-4.3-7.5,1.2-19.4,5.8-27.8c0.2-0.3,0.3-0.5,0.5-0.8c-8.5,1.7-15.8,0.6-21-2.8c-8.9-5.8-9.1-16.7-6.7-29.4
	c-28.1,2.1-58.9-7.4-79-24.3c-15.9-13.4-25.4-27.2-30.5-40.6c-26,17.8-44.4,33-45.9,33.1c-2,0.2,11.8-14.1,24.3-23.6
	c7.2-5.5,12.7-9.7,19.8-14.8c-1.2-4-2-8-2.5-12c-3.2-26.5,11.3-65.7,56.5-82.6c36-13.4,82.3-10.3,123.3,5.6
	c-3.9-6.9-4.1-11.6-3.5-17.5c1.2-11.8,10.8-20,16-23.7c-2-30.3-5.4-46.1-5.4-46.1l7.7-12.8c0,0,4.1,25.2,5,53.6
	c0.2,5.4,0.8,30.4,1.4,56.2c0.9,0.5,1.8,0.9,2.7,1.4c7.2,3.9,13.9,8.1,20.4,12.3c-0.1-3.9-0.1-7.8-0.1-11.6c-3.7-4-7-7.6-9.3-10
	c-9.3-10.2-11.9-17.7-11.6-30.6c0.4-13.5,16.1-21.8,19.7-23.6c-1.1-38.8-5.5-57.4-5.5-57.4l8.7-14.3c0,0,3.2,25,4.5,61.7
	c0.4,13.3,0.8,38.1,1,66.2c3.9,4.3,7.5,8.2,10,10.8c4.7,5.1,11.3,13.3,17.4,21.7v-4.4c0,0-0.5-9.5-1.2-23.5
	c-5.8-6.6-11.6-13.4-17.8-21.4c-8.8-11.3-5.4-23.8-2-31.8c3.2-7.4,15-18.3,16.2-19.4c-0.1-2.9-0.3-5.7-0.4-8.4
	c-1.9-40.5-6.6-59-6.6-59l7.1-12.3c0,0,5.1,15.3,8,68.2c1.3,24.1,2,52,2.3,73.4c5,5.4,10.5,11.2,16.1,17.3
	c31.8,34.6,40.8,54.8,45.8,66.4c2.5,5.9,9.4,28.1,4.8,49.8c9.6,13,16.7,22,28.8,29.3c20.4,12.2,45.8,11,55.1,11.5
	c9.2,0.4,36.1,1.2,62.5,6.9c32.5,7.1,49.9,22,49.9,22l-19.5,1.4c0,0-8-6.2-25.2-12.2c-16.8-5.8-39.7-10-62.5-11.5
	c-28.5-1.8-55.8-0.6-72.3-11.7c-6.9-4.6-13.8-12.3-21.5-22C256.6,319.8,256.1,320.8,255.5,321.8 M214.7,379.6l-8.3-5.3l-5.8,8.9
	l9.1,5.4l5.3-8l8.4,5l5.7-8.6l-9-5.7L214.7,379.6z M238.4,349.2c-1.3,7.9,2.1,10.8,4.6,9.4c2.7-1.5,3.5-7.6,3.5-7.6
	s-1.5,2.7-3.2,3.2c-2.4,0.6-3.2-0.9-3.2-3.8c0-4,3.4-10.4,3.4-10.4S239.4,343.3,238.4,349.2 M206.1,324.3l5.7-8.4l8.2,5.4l6.2-9.2
	l-9.1-5.9l-5.6,8.4l-8.3-5.4l-6.1,9.1L206.1,324.3z M88.2,324.8l9.5,6.2L91,341.4l-9.6-6.4L88.2,324.8z"/>
<path class="st0" d="M-64.8,489.4l-6.3,6c-4.3-4.6-9.2-6.8-14.6-6.8c-4.6,0-8.4,1.6-11.5,4.7s-4.7,6.9-4.7,11.5c0,3.2,0.7,6,2.1,8.4
	c1.4,2.5,3.3,4.4,5.9,5.8c2.5,1.4,5.3,2.1,8.4,2.1c2.6,0,5-0.5,7.2-1.5c2.2-1,4.6-2.8,7.2-5.4l6.2,6.4c-3.5,3.4-6.8,5.8-10,7.2
	c-3.1,1.3-6.7,2-10.7,2c-7.4,0-13.5-2.3-18.2-7c-4.7-4.7-7.1-10.7-7.1-18.1c0-4.7,1.1-9,3.2-12.7c2.1-3.7,5.2-6.7,9.2-8.9
	c4-2.2,8.3-3.4,13-3.4c3.9,0,7.7,0.8,11.3,2.5C-70.6,484-67.5,486.4-64.8,489.4 M-51.5,528.7h9.2v-20.9h16v20.9h9.1V481h-9.1V499
	h-16V481h-9.2V528.7z M-4.8,528.7h9.4l3.9-9.8H28l3.7,9.8h9.4L22.8,481h-9.2L-4.8,528.7z M24.6,510.1H11.8l6.4-16.4L24.6,510.1z
	 M53.7,528.7h22.3V520H62.7v-39h-9V528.7z M88.2,528.7h9.2v-20.9h16v20.9h9.1V481h-9.1V499h-16V481h-9.2V528.7z M161.3,479.8
	c-4.5,0-8.6,1.1-12.5,3.3c-3.9,2.2-6.9,5.3-9.1,9.1c-2.2,3.8-3.3,8-3.3,12.6c0,6.8,2.4,12.7,7.1,17.6c4.7,5,10.7,7.4,17.8,7.4
	c6.8,0,12.6-2.4,17.4-7.2c4.8-4.8,7.2-10.7,7.2-17.7c0-7-2.4-13-7.3-17.8C173.9,482.3,168.1,479.8,161.3,479.8 M161.2,488.7
	c4.4,0,8.1,1.6,11.1,4.7c3.1,3.1,4.6,7,4.6,11.5c0,4.6-1.5,8.4-4.5,11.5c-3,3.1-6.7,4.7-11,4.7c-3.8,0-7.2-1.2-10.1-3.6
	c-3.8-3.1-5.7-7.2-5.7-12.5c0-4.7,1.5-8.6,4.5-11.7C153.1,490.3,156.8,488.7,161.2,488.7 M199.7,509.4c0,5.7,0.6,9.7,1.7,12.1
	c1.1,2.4,2.9,4.4,5.5,6c2.6,1.6,5.6,2.4,9,2.4c2.6,0,4.9-0.4,6.9-1.2c2-0.8,3.7-2.1,5.3-3.8c1.5-1.7,2.5-3.5,3.1-5.4
	c0.5-1.9,0.8-5.2,0.8-10V481h-9.1v29.7c0,3.2-0.2,5.4-0.7,6.5c-0.4,1.1-1.2,2.1-2.4,2.8c-1.2,0.7-2.5,1.1-4.1,1.1
	c-1.5,0-2.8-0.3-3.9-1c-1.1-0.7-1.8-1.5-2.3-2.6s-0.7-3-0.7-5.6V481h-9.1V509.4z M261.3,528.7c3.8,0,6.9-0.5,9-1.6
	c2.2-1.1,4-2.7,5.4-4.9c1.4-2.2,2.1-4.6,2.1-7.3c0-2.8-0.7-5.2-2-7.2c-1.3-2-3.4-3.7-6.3-5.1c1.7-1.3,3-2.7,3.8-4.2
	c0.8-1.5,1.2-3.1,1.2-4.9c0-2.8-0.8-5.2-2.5-7.3c-1.7-2-4-3.4-6.8-4.2c-2-0.6-5.2-0.8-9.5-0.8h-7.5v47.7H261.3z M259.3,489.7
	c2.1,0,3.7,0.4,4.7,1.3c1,0.9,1.5,2.1,1.5,3.5c0,1.6-0.5,2.9-1.6,3.8c-1.1,0.9-2.7,1.4-5,1.4h-2v-10H259.3z M258.8,507.8
	c3.6,0,6.2,0.6,7.7,1.8c1.6,1.2,2.3,2.8,2.3,4.9c0,1.8-0.7,3.2-2,4.2c-1.3,0.9-3.9,1.4-7.7,1.4h-2.3v-12.2H258.8z M339.5,504.9
	c-1.8-1.9-3.5-3.2-5.4-4c-2.1-0.9-4.5-1.4-7-1.4c-4.7,0-8.6,1.7-11.5,5c-2.5,2.8-3.7,6.1-3.7,9.8c0,2.8,0.7,5.3,2,7.7
	c1.4,2.4,3.2,4.2,5.5,5.5c2.3,1.3,5,1.9,7.9,1.9c2.8,0,5.2-0.6,7.2-1.8c2-1.2,3.7-2.9,5-5.1c1.3-2.2,1.9-4.6,1.9-7.1l0-1.2h-14.3
	v5.1h8.2c-0.8,1.7-1.8,2.9-3.1,3.7c-1.3,0.8-2.9,1.2-4.7,1.2c-2.9,0-5.3-1-7.3-2.9c-2-1.9-2.9-4.2-2.9-7c0-2.7,1-4.9,2.8-6.8
	c1.9-1.9,4.2-2.8,7-2.8c3.2,0,6,1.3,8.4,3.8L339.5,504.9 M350.1,528.7h5.4v-12h0.5l6.4,12h5.9l-6.7-12.7c1.8-0.6,3.2-1.6,4.1-2.8
	c0.9-1.3,1.3-2.8,1.3-4.7c0-1.8-0.4-3.3-1.2-4.6c-0.8-1.3-1.9-2.2-3.2-2.8c-1.3-0.6-3.6-0.8-6.7-0.8h-5.7V528.7z M355.6,505.5h1.5
	c1.5,0,2.4,0.1,3,0.3c0.5,0.2,1,0.5,1.3,1c0.3,0.5,0.5,1,0.5,1.6c0,1-0.3,1.8-1,2.2c-0.7,0.5-1.8,0.7-3.6,0.7h-1.7V505.5z
	 M389.5,499.5c-2.7,0-5.1,0.7-7.4,2s-4.1,3.1-5.4,5.4c-1.3,2.3-2,4.8-2,7.5c0,4.1,1.4,7.6,4.2,10.5c2.8,3,6.4,4.4,10.7,4.4
	c4.1,0,7.5-1.4,10.4-4.3c2.9-2.9,4.3-6.4,4.3-10.5c0-4.2-1.5-7.8-4.3-10.7C397,501,393.5,499.5,389.5,499.5 M389.4,504.8
	c2.6,0,4.8,0.9,6.6,2.8c1.8,1.9,2.7,4.2,2.7,6.9c0,2.7-0.9,5-2.7,6.9c-1.8,1.9-4,2.8-6.6,2.8c-2.3,0-4.3-0.7-6-2.1
	c-2.2-1.8-3.4-4.3-3.4-7.5c0-2.8,0.9-5.2,2.7-7C384.5,505.7,386.8,504.8,389.4,504.8 M412.4,517.2c0,3.4,0.3,5.8,1,7.2
	c0.7,1.4,1.8,2.6,3.3,3.6c1.5,0.9,3.3,1.4,5.4,1.4c1.6,0,3-0.2,4.1-0.7c1.2-0.5,2.2-1.3,3.2-2.3c0.9-1,1.5-2.1,1.8-3.2
	c0.3-1.1,0.5-3.1,0.5-6v-17h-5.4V518c0,1.9-0.1,3.2-0.4,3.9c-0.3,0.7-0.7,1.2-1.4,1.7c-0.7,0.4-1.5,0.7-2.5,0.7
	c-0.9,0-1.7-0.2-2.3-0.6c-0.6-0.4-1.1-0.9-1.4-1.6c-0.3-0.7-0.4-1.8-0.4-3.4v-18.4h-5.4V517.2z M441.2,528.7h5.4v-12
	c2.8,0,4.7-0.2,5.7-0.4c1.8-0.5,3.2-1.4,4.2-2.8c1-1.3,1.6-3,1.6-5c0-1.8-0.4-3.3-1.2-4.6c-0.8-1.3-1.9-2.2-3.3-2.8
	c-1.4-0.6-3.6-0.9-6.7-0.9h-5.7V528.7z M446.6,505.5h1.5c1.7,0,2.8,0.2,3.5,0.6c0.9,0.5,1.3,1.3,1.3,2.4c0,0.6-0.1,1.2-0.5,1.6
	c-0.3,0.4-0.7,0.8-1.3,1c-0.5,0.2-1.5,0.3-2.8,0.3h-1.7V505.5z"/>
</svg>
