<?xml version="1.0" encoding="UTF-8" standalone="no"?>
<!-- Created with Inkscape (http://www.inkscape.org/) -->

<svg
   version="1.1"
   id="svg2"
   width="766.09332"
   height="199.21333"
   viewBox="0 0 766.09332 199.21333"
   sodipodi:docname="emirates-nbd-bank-seeklogo.eps"
   xmlns:inkscape="http://www.inkscape.org/namespaces/inkscape"
   xmlns:sodipodi="http://sodipodi.sourceforge.net/DTD/sodipodi-0.dtd"
   xmlns="http://www.w3.org/2000/svg"
   xmlns:svg="http://www.w3.org/2000/svg">
  <defs
     id="defs6" />
  <sodipodi:namedview
     id="namedview4"
     pagecolor="#ffffff"
     bordercolor="#000000"
     borderopacity="0.25"
     inkscape:showpageshadow="2"
     inkscape:pageopacity="0.0"
     inkscape:pagecheckerboard="0"
     inkscape:deskcolor="#d1d1d1" />
  <g
     id="g8"
     inkscape:groupmode="layer"
     inkscape:label="ink_ext_XXXXXX"
     transform="matrix(1.3333333,0,0,-1.3333333,0,199.21333)">
    <g
       id="g10"
       transform="scale(0.1)">
      <path
         d="M 5745.71,0 H 0 V 1494.14 H 5745.71 V 0"
         style="fill:#ffffff;fill-opacity:1;fill-rule:nonzero;stroke:none"
         id="path12" />
      <path
         d="M 5656.97,88.7695 H 1071.62 V 1405.33 H 5656.97 V 88.7695"
         style="fill:#171f3b;fill-opacity:1;fill-rule:nonzero;stroke:none"
         id="path14" />
      <path
         d="m 1358.05,996.793 h 294.4 V 918.188 H 1458.09 V 795.281 h 177.93 V 716.668 H 1458.09 V 576.621 h 195.79 v -78.613 h -295.83 v 498.785"
         style="fill:#ffffff;fill-opacity:1;fill-rule:nonzero;stroke:none"
         id="path16" />
      <path
         d="m 1703.21,866.023 h 89.32 v -51.449 h 1.43 c 30.01,45.02 73.6,60.024 109.33,60.024 51.45,0 87.9,-19.289 108.62,-65.024 22.15,44.301 70.02,65.024 115.04,65.024 90.76,0 116.48,-62.168 116.48,-144.344 V 498.008 h -95.75 v 219.375 c 0,34.312 0,82.898 -55.03,82.898 -63.59,0 -71.45,-75.75 -71.45,-123.621 V 498.008 h -95.76 v 219.375 c 0,34.312 0,82.898 -55.02,82.898 -63.59,0 -71.46,-75.75 -71.46,-123.621 V 498.008 h -95.75 v 368.015"
         style="fill:#ffffff;fill-opacity:1;fill-rule:nonzero;stroke:none"
         id="path18" />
      <path
         d="m 2299.19,866.023 h 95.76 V 498.008 h -95.76 z m 0,158.637 h 95.76 v -91.469 h -95.76 v 91.469"
         style="fill:#ffffff;fill-opacity:1;fill-rule:nonzero;stroke:none"
         id="path20" />
      <path
         d="m 2447.83,866.023 h 85.04 v -83.601 h 1.42 c 4.29,34.297 43.59,92.176 100.76,92.176 9.29,0 19.29,0 29.3,-2.856 v -96.469 c -8.58,5.004 -25.73,7.86 -42.88,7.86 -77.89,0 -77.89,-97.195 -77.89,-150.067 V 498.008 h -95.75 v 368.015"
         style="fill:#ffffff;fill-opacity:1;fill-rule:nonzero;stroke:none"
         id="path22" />
      <path
         d="m 2812.65,559.473 c 29.3,0 52.16,12.851 67.15,32.859 15.73,20.723 20.02,47.16 20.02,75.754 h -41.44 c -42.87,0 -106.47,-7.148 -106.47,-63.606 0,-31.433 26.44,-45.007 60.74,-45.007 z m -112.19,287.261 c 37.16,17.149 87.18,27.864 127.91,27.864 112.18,0 158.62,-46.446 158.62,-155.067 v -47.168 c 0,-37.148 0.72,-65.019 1.43,-92.168 0.72,-27.871 2.15,-53.593 4.29,-82.187 h -84.31 c -3.58,19.297 -3.58,43.594 -4.3,55.019 h -1.42 c -22.15,-40.722 -70.02,-63.597 -113.61,-63.597 -65.03,0 -128.63,39.308 -128.63,109.34 0,55.019 26.44,87.168 62.89,105.039 36.44,17.871 83.6,21.433 123.62,21.433 h 52.87 c 0,59.324 -26.44,79.328 -82.88,79.328 -40.73,0 -81.47,-15.718 -113.62,-40.015 l -2.86,82.179"
         style="fill:#ffffff;fill-opacity:1;fill-rule:nonzero;stroke:none"
         id="path24" />
      <path
         d="m 3062.75,795.996 h -70.74 v 70.027 h 70.74 v 73.602 l 95.75,30.727 V 866.023 h 85.04 V 795.996 H 3158.5 V 624.492 c 0,-31.445 8.59,-60.742 45.02,-60.742 17.14,0 33.59,3.574 43.59,10 l 2.85,-75.742 c -20,-5.719 -42.15,-8.578 -70.74,-8.578 -75.02,0 -116.47,46.449 -116.47,119.34 v 187.226"
         style="fill:#ffffff;fill-opacity:1;fill-rule:nonzero;stroke:none"
         id="path26" />
      <path
         d="m 3504.36,718.105 c -2.86,46.45 -24.28,86.465 -77.88,86.465 -53.59,0 -80.76,-37.152 -85.03,-86.465 z m 64.31,-199.375 c -35.02,-19.289 -75.02,-29.3 -126.48,-29.3 -121.47,0 -192.21,70.043 -192.21,190.804 0,106.473 56.45,194.364 170.78,194.364 136.49,0 175.06,-93.606 175.06,-222.235 h -254.37 c 4.27,-59.316 45.72,-92.89 105.03,-92.89 46.45,0 86.47,17.148 122.19,37.148 V 518.73"
         style="fill:#ffffff;fill-opacity:1;fill-rule:nonzero;stroke:none"
         id="path28" />
      <path
         d="m 3853.81,788.852 c -29.3,10.003 -50.74,15.718 -85.74,15.718 -25.73,0 -56.47,-9.289 -56.47,-40.726 0,-58.61 166.51,-21.438 166.51,-154.352 0,-85.762 -76.47,-120.062 -154.36,-120.062 -36.45,0 -73.59,6.437 -108.61,15.726 l 5.72,78.602 c 30.02,-15.008 61.44,-24.285 94.32,-24.285 24.29,0 62.89,9.277 62.89,45.007 0,72.18 -166.51,22.864 -166.51,155.79 0,79.316 69.32,114.328 144.36,114.328 45.02,0 74.31,-7.145 104.31,-13.575 l -6.42,-72.171"
         style="fill:#ffffff;fill-opacity:1;fill-rule:nonzero;stroke:none"
         id="path30" />
      <path
         d="m 4072.83,996.793 h 122.91 l 190.08,-373.016 h 1.43 v 373.016 h 95.74 V 498.008 H 4360.8 l -190.78,373.015 h -1.43 V 498.008 h -95.76 v 498.785"
         style="fill:#ffffff;fill-opacity:1;fill-rule:nonzero;stroke:none"
         id="path32" />
      <path
         d="m 4661.29,576.621 h 47.15 c 46.44,0 102.91,11.426 102.91,69.305 0,65.031 -52.89,75.031 -102.91,75.031 h -47.15 z m 0,218.66 h 40.72 c 42.17,0 94.32,9.289 94.32,60.739 0,57.882 -50.72,62.168 -96.47,62.168 h -38.57 z m -100.04,201.512 h 174.36 c 64.29,0 160.78,-18.582 160.78,-127.91 0,-59.309 -40.02,-100.754 -99.34,-111.477 v -1.426 c 67.89,-6.433 114.34,-52.171 114.34,-113.628 0,-125.762 -112.91,-144.344 -175.78,-144.344 h -174.36 v 498.785"
         style="fill:#ffffff;fill-opacity:1;fill-rule:nonzero;stroke:none"
         id="path34" />
      <path
         d="m 5066.11,576.621 h 55.75 c 83.59,0 164.35,62.168 164.35,170.785 0,108.614 -80.76,170.782 -164.35,170.782 h -55.75 z m -100.04,420.172 h 136.49 c 152.93,0 287.97,-51.453 287.97,-249.387 0,-197.945 -135.04,-249.398 -287.97,-249.398 h -136.49 v 498.785"
         style="fill:#ffffff;fill-opacity:1;fill-rule:nonzero;stroke:none"
         id="path36" />
      <path
         d="M 982.813,88.8008 H 88.7539 V 1405.39 H 982.813 V 88.8008"
         style="fill:#171f3b;fill-opacity:1;fill-rule:nonzero;stroke:none"
         id="path38" />
      <path
         d="m 457.043,604.168 c 11.828,325.715 187.492,614.122 451.504,801.502 H 733.281 C 519.426,1219.84 375.68,959.012 369.723,669.051 365,439.141 409.32,264.699 531.211,88.5195 h 44.516 C 480.492,250.578 450.371,420.629 457.043,604.168"
         style="fill:#ffffff;fill-opacity:1;fill-rule:nonzero;stroke:none"
         id="path40" />
      <path
         d="M 486.094,88.75 C 380.512,200.691 252.848,411.73 237.93,639.773 219.672,918.695 311.746,1190.43 497.813,1405.45 H 641.875 C 414.223,1179.61 298.891,880.586 325.293,583.418 342.156,393.48 416.895,253.102 531.406,88.75 h -45.312"
         style="fill:#f68c11;fill-opacity:1;fill-rule:nonzero;stroke:none"
         id="path42" />
      <path
         d="m 534.691,359.531 c 96.106,99.43 185.598,243.067 213.793,386.324 39.547,200.872 -12.472,366.755 -15.964,378.185 -2.465,8.07 -3.747,13.63 -2.469,14.29 2.855,1.47 23.246,-34.69 36.941,-63.36 C 793.5,1019.53 822.262,930 820.699,827.133 818.75,699.375 773.281,572.254 690.641,474.359 661.953,440.371 629.145,410.172 592.074,385.039 567.898,368.629 526.523,346 525.039,348.359 c -0.801,1.282 3.805,5.121 9.652,11.172"
         style="fill:#ffffff;fill-opacity:1;fill-rule:nonzero;stroke:none"
         id="path44" />
      <path
         d="m 531.449,356.609 c 64.473,74.301 122.406,179.493 136.602,281.887 19.91,143.563 -24.098,258.59 -27.055,266.508 -2.094,5.605 -3.23,9.488 -2.351,9.996 1.968,1.156 18.019,-23.535 28.992,-43.215 C 688.848,833.73 713.09,771.668 716.23,698.945 720.121,608.602 692.934,516.883 638.004,444.27 618.938,419.059 596.762,396.352 571.352,377.039 554.77,364.441 526.313,346.77 525.02,348.391 c -0.825,1.031 2.5,3.699 6.429,8.218"
         style="fill:#f68c11;fill-opacity:1;fill-rule:nonzero;stroke:none"
         id="path46" />
    </g>
  </g>
</svg>
