<?xml version="1.0" encoding="UTF-8"?>
<svg id="Layer_2" data-name="Layer 2" xmlns="http://www.w3.org/2000/svg" viewBox="0 0 184.01 182.67">
  <defs>
    <style>
      .cls-1 {
        fill: #d8c0ff;
      }

      .cls-2 {
        fill: #dc4426;
      }
    </style>
  </defs>
  <g id="Layer_1-2" data-name="Layer 1">
    <g>
      <g>
        <path class="cls-2" d="M155,151.59c-5.71-6.6-14.76-15.07-27.88-20.88-3.4-1.51-6.69-2.66-9.78-3.55,7.67-1.58,15.21-3.92,22.53-6.99,1.17-.43,2.01-1.58,2.01-2.89v-9.86h1.82c2.21,0,4.22-.9,5.68-2.36h.02c1.46-1.46,2.36-3.46,2.36-5.68v-8.92c0-2.23-.9-4.24-2.36-5.7h-.02c-1.46-1.46-3.47-2.36-5.68-2.36h-1.82v-9.86c-.02-1.21-.74-2.36-1.91-2.85-10.31-4.33-21.04-7.2-31.92-8.57-.57-3.24-2.13-6.13-4.35-8.34-2.13-2.13-4.9-3.67-8-4.29v-6.77c3.08-1.23,5.25-4.24,5.25-7.75,0-4.61-3.73-8.34-8.34-8.34s-8.37,3.73-8.37,8.34c0,3.51,2.17,6.52,5.25,7.75v6.77c-3.08,.62-5.84,2.15-7.98,4.29-2.23,2.21-3.79,5.11-4.37,8.34-10.85,1.37-21.55,4.22-31.82,8.53-1.17,.43-1.99,1.58-1.99,2.89v9.86h-2.46c-2.38,0-4.55,.96-6.13,2.54-1.56,1.56-2.54,3.73-2.54,6.11v7.71c0,2.36,.98,4.53,2.56,6.11,1.58,1.58,3.73,2.54,6.11,2.54h2.46v9.86c0,1.21,.72,2.36,1.91,2.85,7.14,2.99,14.45,5.29,21.9,6.87-3.23,.92-6.69,2.12-10.27,3.71-13.13,5.82-22.22,14.24-27.96,20.79,5.75,6.85,17.61,18.92,36.24,25.22,2.38,.8,12.77,4.18,26.85,4.27,12.55,.08,21.86-2.5,23.76-3.05,20.17-5.77,33.19-19.13,39.24-26.35Z"/>
        <g>
          <path class="cls-1" d="M125.73,110.5c1.33-.43,2.15-1.64,2.15-2.95,0-8.41,0-16.83,.02-25.28,0-1.46-1.03-2.71-2.4-3.01-10.66-3.38-21.69-5.11-32.7-5.13h-.39c-11.09,.02-22.18,1.76-32.91,5.21-1.33,.41-2.15,1.62-2.15,2.93-.02,8.45-.02,16.87-.02,25.28,0,1.48,1.03,2.71,2.42,3.03,10.7,3.4,21.8,5.13,32.87,5.13s22.33-1.74,33.11-5.21Z"/>
          <path class="cls-1" d="M154.26,153.07c-2.5-2.91-10.29-11.63-19.48-16.89-3.77-2.16-8.24-4.09-8.24-4.09-3.14-1.35-6.38-2.54-9.62-3.51l-5.68-1.7,5.82-1.19c7.55-1.54,15.03-3.85,22.25-6.89,.68-.25,1.09-.86,1.09-1.52v-11.34h3.32c1.74,0,3.38-.7,4.63-1.93l.2-.2c1.11-1.21,1.72-2.77,1.72-4.43v-8.92c0-1.68-.62-3.26-1.76-4.49l-.16-.16c-1.25-1.23-2.89-1.93-4.63-1.93h-3.32v-11.34c0-.66-.39-1.23-.98-1.48-10.07-4.22-20.65-7.07-31.43-8.45h-1.17l-.23-1.25c-.14-.94-.41-1.87-.8-2.81l-.16-.41s-.06-.14-.12-.27l-.08-.16c-.68-1.44-1.62-2.75-2.75-3.88-1.99-1.99-4.49-3.34-7.24-3.9l-1.19-.23v-9l.92-.39c2.62-1.03,4.31-3.53,4.31-6.36,0-3.79-3.08-6.87-6.85-6.87s-6.85,3.08-6.85,6.87c0,2.83,1.68,5.33,4.29,6.36l.94,.39v9l-1.19,.23c-2.75,.55-5.25,1.91-7.24,3.9l-.41,.41c-.43,.49-.82,.94-1.13,1.39-.16,.23-.31,.45-.45,.68-.31,.51-.57,.96-.78,1.44-.16,.31-.31,.66-.45,1-.31,.84-.55,1.72-.72,2.62l-.18,1.09-1.11,.12c-10.78,1.37-21.36,4.2-31.41,8.43-.27,.1-.47,.23-.64,.39-.06,.08-.12,.16-.18,.25l-.08,.14c-.04,.06-.06,.14-.1,.23l-.02,.08c-.04,.12-.06,.27-.06,.43v11.34h-3.94c-1.93,0-3.73,.76-5.08,2.11-1.35,1.37-2.11,3.16-2.11,5.06v7.71c0,1.89,.76,3.69,2.13,5.06,1.03,.98,2.28,1.68,3.59,1.95,.47,.1,.96,.16,1.48,.16h3.94v11.34c0,.27,.06,.51,.18,.76,.04,.06,.08,.14,.14,.2l.16,.18c.14,.14,.31,.25,.49,.33,6.99,2.93,14.27,5.23,21.65,6.79l5.78,1.23-5.68,1.66c-3.44,1-6.83,2.23-10.11,3.65-2.56,1.11-7.3,3.18-12.46,6.63-3.91,2.61-9.56,7.02-15.12,14.03,2.14,2.87,5.41,6.78,10.05,10.71,9.53,8.06,18.96,11.21,25.21,13.26,8.45,2.77,17.47,4.27,26.85,4.27,4.46,0,14.31-.34,26.18-4.05,5.85-1.83,16.01-5.18,26.27-13.77,4.44-3.72,7.66-7.38,9.81-10.11ZM49.56,115.19v-40.56c10.58-4.22,21.61-6.83,32.76-7.81,3.42-.31,6.85-.47,10.29-.47s6.87,.16,10.29,.47c11.15,.98,22.18,3.59,32.76,7.81v40.56c-13.82,5.52-28.44,8.26-43.06,8.26s-29.22-2.75-43.06-8.26Zm46.01,51.5c-1.6,2.01-2.52,3.96-3.05,5.41-.51-1.54-1.46-3.67-3.16-5.84-2.56-3.28-5.58-4.98-7.3-5.8,1.64-.86,3.77-2.21,5.93-4.26,2.52-2.44,4.1-4.94,5.02-6.75,.59,1.58,1.64,3.83,3.51,6.11,2.38,2.89,5,4.55,6.66,5.41-1.76,.74-4.92,2.4-7.61,5.72Z"/>
        </g>
        <path class="cls-2" d="M149.88,158.07l-5.43,5.11c-.31-.33-.66-.7-1.07-1.11-6.46-6.54-25.22-22.47-53.33-21.59-25.65,.82-42.77,15.44-49.04,21.86-.41,.41-.76,.8-1.07,1.13-.12,.12-.23,.25-.33,.35l-5.52-5.02s.04-.06,.08-.08c.31-.35,.68-.72,1.09-1.15,6.62-6.87,25.69-23.62,54.56-24.54,31.66-1,52.59,17.37,59.28,24.26,.31,.29,.55,.55,.78,.8Z"/>
        <path class="cls-2" d="M97.89,54.15c3.68,2.88,3.79,7.38,3.79,8.14-2.86-.27-6.01-.45-9.42-.45-3.12,0-6.02,.15-8.67,.38-.04-.55-.33-5.28,3.4-8.19,.59-.46,2.59-1.97,5.5-1.93,2.78,.04,4.66,1.46,5.41,2.05Z"/>
        <circle class="cls-2" cx="92.62" cy="34.01" r="4.32"/>
        <g>
          <circle class="cls-2" cx="75.12" cy="94.95" r="10.66"/>
          <circle class="cls-2" cx="109.12" cy="94.95" r="10.66"/>
          <circle class="cls-1" cx="75.12" cy="94.95" r="6.05"/>
          <circle class="cls-1" cx="109.12" cy="94.95" r="6.05"/>
          <circle class="cls-2" cx="143.5" cy="94.95" r="4.32"/>
          <circle class="cls-2" cx="40.5" cy="94.95" r="4.32"/>
        </g>
      </g>
      <path class="cls-1" d="M92,182.67C41.27,182.67,0,141.7,0,91.34S41.27,0,92,0s92,40.97,92,91.34-41.27,91.34-92,91.34Zm0-178.21C43.73,4.47,4.47,43.44,4.47,91.34s39.27,86.87,87.54,86.87,87.54-38.97,87.54-86.87S140.27,4.47,92,4.47Z"/>
    </g>
  </g>
</svg>