<?xml version="1.0" standalone="no"?>
<!DOCTYPE svg PUBLIC "-//W3C//DTD SVG 20010904//EN"
 "http://www.w3.org/TR/2001/REC-SVG-20010904/DTD/svg10.dtd">
<svg version="1.0" xmlns="http://www.w3.org/2000/svg"
 width="186.000000pt" height="300.000000pt" viewBox="0 0 186.000000 300.000000"
 preserveAspectRatio="xMidYMid meet">

<g transform="translate(0.000000,300.000000) scale(0.100000,-0.100000)"
fill="#000000" stroke="none">
<path d="M0 2080 l0 -920 202 0 c153 0 218 4 267 16 246 61 465 258 501 451
27 140 -7 275 -92 368 -87 95 -169 132 -323 145 -55 5 -114 12 -132 16 -26 5
-33 2 -44 -17 -7 -13 -16 -40 -19 -59 l-6 -35 -29 55 c-25 47 -29 66 -30 130
0 114 25 152 198 300 118 101 218 161 329 198 340 113 696 24 960 -239 l78
-77 0 294 0 294 -930 0 -930 0 0 -920z"/>
<path d="M1075 2550 c-105 -17 -317 -91 -302 -106 3 -3 14 -1 24 4 14 9 21 4
38 -25 28 -51 78 -75 139 -70 42 4 55 10 83 41 26 28 33 44 33 76 l0 40 53 0
c140 0 329 -58 463 -141 47 -30 124 -91 170 -136 l84 -81 0 78 0 78 -67 52
c-90 67 -249 145 -348 170 -93 24 -281 33 -370 20z"/>
<path d="M1255 2168 c94 -56 201 -166 247 -254 58 -112 73 -172 72 -309 -1
-173 -33 -263 -150 -423 l-17 -22 219 2 219 3 7 70 c14 152 -24 350 -95 490
-71 143 -191 280 -317 365 -56 38 -226 120 -248 120 -4 0 25 -19 63 -42z"/>
<path d="M1775 979 c-21 -39 -10 -51 41 -47 43 3 49 21 9 26 -14 2 -25 10 -25
19 0 11 6 14 26 9 19 -5 25 -3 22 6 -3 7 -16 14 -31 16 -20 3 -29 -3 -42 -29z"/>
<path d="M400 775 l0 -165 -140 0 c-136 0 -142 1 -165 25 -38 37 -28 87 21
105 25 10 31 34 15 59 -13 21 -77 -5 -104 -41 -28 -38 -28 -118 0 -156 35 -48
54 -52 256 -52 l187 0 0 195 0 195 -35 0 -35 0 0 -165z"/>
<path d="M1210 895 c0 -33 2 -35 35 -35 33 0 35 2 35 35 0 33 -2 35 -35 35
-33 0 -35 -2 -35 -35z"/>
<path d="M1770 725 l0 -175 35 0 35 0 0 175 0 175 -35 0 -35 0 0 -175z"/>
<path d="M258 828 c-9 -7 -18 -25 -22 -40 -6 -27 -5 -28 39 -28 25 0 45 5 45
10 0 6 -13 10 -30 10 -32 0 -36 6 -21 29 8 12 12 13 25 1 21 -16 33 -5 16 15
-15 18 -31 19 -52 3z"/>
<path d="M593 801 c-42 -27 -53 -49 -53 -114 0 -41 5 -61 22 -82 25 -32 74
-55 119 -55 30 0 31 -1 27 -37 -5 -38 14 -83 34 -83 12 0 38 63 38 95 l0 25
250 0 250 0 0 135 0 135 -35 0 -35 0 0 -105 0 -105 -215 0 -215 0 0 70 c0 62
-3 73 -28 101 -37 42 -110 51 -159 20z m107 -60 c5 -11 10 -45 10 -75 0 -52
-2 -56 -24 -56 -13 0 -35 9 -50 21 -49 39 -29 129 29 129 14 0 29 -8 35 -19z"/>
<path d="M1499 813 c-13 -3 -15 -10 -10 -31 7 -24 12 -27 59 -30 63 -4 82 -25
82 -94 l0 -48 -145 0 -145 0 0 -30 0 -30 180 0 180 0 0 88 c0 102 -19 144 -75
168 -33 13 -91 17 -126 7z"/>
<path d="M1268 380 c-52 -10 -85 -34 -109 -82 -24 -48 -29 -133 -10 -190 32
-96 165 -135 260 -77 59 36 88 146 61 238 -13 45 -65 98 -104 106 -17 4 -38 8
-46 9 -8 2 -31 0 -52 -4z m101 -79 c45 -45 49 -159 6 -208 -31 -37 -95 -37
-131 -2 -45 46 -45 159 1 205 31 31 96 33 124 5z"/>
<path d="M1661 379 c-81 -18 -125 -85 -124 -190 1 -119 58 -184 163 -183 66 0
114 23 135 64 24 47 20 60 -20 60 -28 0 -37 -5 -49 -29 -28 -54 -99 -48 -137
11 -16 26 -19 45 -16 91 4 75 30 111 81 115 40 4 63 -10 76 -43 7 -17 15 -20
44 -17 32 4 36 7 30 26 -23 77 -95 115 -183 95z"/>
<path d="M76 203 c-36 -98 -66 -181 -66 -185 0 -5 15 -8 34 -8 31 0 36 4 48
43 l15 42 65 3 66 3 14 -43 c14 -41 17 -43 56 -46 l42 -3 -26 68 c-14 37 -45
120 -69 183 -42 115 -43 115 -77 118 l-35 3 -67 -178z m144 -40 c0 -2 -21 -3
-46 -3 -33 0 -45 4 -42 13 3 6 13 36 23 66 l18 54 23 -64 c13 -35 24 -65 24
-66z"/>
<path d="M400 195 l0 -187 98 4 c81 3 104 8 136 27 73 46 98 163 54 251 -33
65 -70 82 -189 88 l-99 5 0 -188z m205 90 c24 -23 30 -50 25 -119 -4 -61 -51
-96 -126 -96 l-34 0 0 120 0 120 55 0 c46 0 60 -4 80 -25z"/>
<path d="M779 376 c-2 -2 -3 -86 -1 -185 l3 -181 35 0 35 0 -3 115 c-2 63 0
115 3 115 3 0 38 -52 78 -115 69 -111 73 -115 107 -115 l34 0 -2 183 -3 182
-32 3 -33 3 0 -121 c0 -67 -4 -119 -9 -116 -5 3 -41 58 -80 121 -64 102 -76
115 -100 115 -15 0 -30 -2 -32 -4z"/>
</g>
</svg>
